<?xml version="1.0" encoding="UTF-8" standalone="no"?>
<!-- Created with Inkscape (http://www.inkscape.org/) -->

<svg
   width="111.56598mm"
   height="88.392456mm"
   viewBox="0 0 111.56598 88.392456"
   version="1.1"
   id="svg5"
   xml:space="preserve"
   sodipodi:docname="bw_logo_full.svg"
   inkscape:version="1.2.2 (732a01da63, 2022-12-09, custom)"
   xmlns:inkscape="http://www.inkscape.org/namespaces/inkscape"
   xmlns:sodipodi="http://sodipodi.sourceforge.net/DTD/sodipodi-0.dtd"
   xmlns="http://www.w3.org/2000/svg"
   xmlns:svg="http://www.w3.org/2000/svg"><sodipodi:namedview
     id="namedview7"
     pagecolor="#ffffff"
     bordercolor="#000000"
     borderopacity="0.25"
     inkscape:showpageshadow="2"
     inkscape:pageopacity="0.0"
     inkscape:pagecheckerboard="0"
     inkscape:deskcolor="#d1d1d1"
     inkscape:document-units="mm"
     showgrid="false"
     inkscape:zoom="0.70199214"
     inkscape:cx="115.38591"
     inkscape:cy="252.85183"
     inkscape:window-width="1846"
     inkscape:window-height="1016"
     inkscape:window-x="0"
     inkscape:window-y="0"
     inkscape:window-maximized="1"
     inkscape:current-layer="g208" /><defs
     id="defs2" /><g
     inkscape:label="Layer 1"
     inkscape:groupmode="layer"
     id="layer1"
     transform="translate(-31.083854,-74.819896)" /><g
     id="g208"
     transform="matrix(0.03527778,0,0,-0.03527778,188.91615,363.47476)"><path
       d="m -5355.103,8266.3207 c 0,100 60.2,161 142.4,161 43,0 71.3,-19.5 89.5,-38.2 l -21.7,-25.7 c -15.7,16.2 -35.6,29.2 -66.7,29.2 -62.5,0 -102.7,-48 -102.7,-125.3 0,-77.9 36.9,-126.8 103.1,-126.8 22.2,0 43.6,6.7 55.8,18.2 v 80.8 h -65.6 v 32.7 h 101.6 v -130.4 c -19.9,-20.8 -53.9,-36 -95.6,-36 -81.8,0 -140.1,59.7 -140.1,160.5"
       style="fill:#100f0d;fill-opacity:1;fill-rule:nonzero;stroke:none"
       id="path696-3" /><path
       d="m -4791.903,8267.7207 c 0,77.2 -36.4,124.9 -91.8,124.9 -55.4,0 -91.8,-47.7 -91.8,-124.9 0,-77.3 36.4,-127.2 91.8,-127.2 55.4,0 91.8,49.9 91.8,127.2 z m -224.4,0 c 0,99.3 54.7,159.6 132.6,159.6 77.9,0 132.5,-60.5 132.5,-159.6 0,-99.4 -54.6,-161.9 -132.5,-161.9 -77.9,0 -132.6,62.5 -132.6,161.9"
       style="fill:#100f0d;fill-opacity:1;fill-rule:nonzero;stroke:none"
       id="path698-6" /><path
       d="m -4584.103,8388.2207 h -93.8 v 33.4 h 227.1 v -33.4 h -93.8 v -276.7 h -39.5 v 276.7"
       style="fill:#100f0d;fill-opacity:1;fill-rule:nonzero;stroke:none"
       id="path700-7" /><path
       d="m -4348.203,8421.6207 h 39.5 v -129.9 h 144.3 v 129.9 h 39.4 v -310.1 h -39.4 v 145.8 h -144.3 v -145.8 h -39.5 v 310.1"
       style="fill:#100f0d;fill-opacity:1;fill-rule:nonzero;stroke:none"
       id="path702-5" /><path
       d="m -3978.803,8237.4207 h 142.8 v -31.4 h -142.8 z m 49.7,184.2 h 44.6 l 104.9,-310.1 h -41.8 l -54.1,173.2 c -11.2,34.7 -21.1,68.7 -31.1,104.5 h -1.8 c -9.7,-35.9 -19.6,-69.8 -30.8,-104.5 l -54.6,-173.2 h -40.2 l 104.9,310.1"
       style="fill:#100f0d;fill-opacity:1;fill-rule:nonzero;stroke:none"
       id="path704-3" /><path
       d="m -3690.503,8421.6207 h 47.5 l 59.5,-165.7 c 7.5,-21.2 14.6,-43.1 22,-64.6 h 1.9 c 7.5,21.5 14,43.4 21.5,64.6 l 58.7,165.7 h 47.6 v -310.1 h -36.7 v 170.7 c 0,27.1 3,64.3 5,91.8 h -1.9 l -24.6,-70.8 -58.4,-160.4 h -26.2 l -58.7,160.4 -24.6,70.8 h -1.9 c 2,-27.5 5,-64.7 5,-91.8 v -170.7 h -35.7 v 310.1"
       style="fill:#100f0d;fill-opacity:1;fill-rule:nonzero;stroke:none"
       id="path706-5" /><path
       d="m -3176.003,8266.3207 c 0,100 58.9,161 137.6,161 37.7,0 67.2,-18.3 85.3,-38.2 l -21.6,-25.7 c -16.3,17.4 -36.8,29.2 -63,29.2 -58.6,0 -97.6,-48 -97.6,-125.3 0,-77.9 37.3,-126.8 96.1,-126.8 29.6,0 52.1,12.9 71.9,34.8 l 21.6,-24.7 c -24.5,-28.5 -54.9,-44.8 -95.2,-44.8 -77.2,0 -135.1,59.7 -135.1,160.5"
       style="fill:#100f0d;fill-opacity:1;fill-rule:nonzero;stroke:none"
       id="path708-6" /><path
       d="m -2604.903,8388.2207 h -93.8 v 33.4 h 227.1 v -33.4 h -93.8 v -276.7 h -39.5 v 276.7"
       style="fill:#100f0d;fill-opacity:1;fill-rule:nonzero;stroke:none"
       id="path710-2" /><path
       d="m -2325.303,8231.7207 -93.2,189.9 h 42.1 l 40,-87.5 c 10,-22.9 19.3,-44.4 30.1,-67.7 h 1.8 c 10.8,23.3 21.5,44.8 31,67.7 l 40,87.5 h 40.9 l -93.2,-189.9 v -120.2 h -39.5 v 120.2"
       style="fill:#100f0d;fill-opacity:1;fill-rule:nonzero;stroke:none"
       id="path712-9" /><path
       d="m -5323.303,7954.1307 h 42.3 l 22.6,-61.23 c 2.7,-8.29 5,-17.48 7.8,-26.24 h 0.9 c 2.8,8.76 5.1,17.95 7.8,26.24 l 21.7,61.23 h 42.3 v -149.62 h -35.9 v 44.19 c 0,15.21 3.3,38.46 5.1,53.42 h -0.9 l -12.5,-35.91 -18.4,-49.49 h -21.1 l -18.5,49.49 -11.9,35.91 h -1 c 1.9,-14.96 5.1,-38.21 5.1,-53.42 v -44.19 h -35.4 v 149.62"
       style="fill:#100f0d;fill-opacity:1;fill-rule:nonzero;stroke:none"
       id="path714-1" /><path
       d="m -5122.703,7876.8007 v 77.33 h 39.6 v -81.93 c 0,-26.72 6.9,-36.38 22.6,-36.38 15.6,0 23,9.66 23,36.38 v 81.93 h 38.2 v -77.33 c 0,-51.12 -19.3,-75.04 -61.2,-75.04 -41.9,0 -62.2,23.92 -62.2,75.04"
       style="fill:#100f0d;fill-opacity:1;fill-rule:nonzero;stroke:none"
       id="path716-2" /><path
       d="m -4955.603,7823.1607 22.6,27.17 c 10.6,-8.52 23.9,-14.51 35,-14.51 11.9,0 17,3.92 17,10.59 0,7.14 -7.6,9.44 -20.3,14.5 l -18.6,7.82 c -16.1,6.44 -30.2,20.03 -30.2,41.68 0,25.54 23.1,46.49 55.7,46.49 17.1,0 36,-6.44 49.8,-20.02 l -19.8,-24.88 c -10.2,7.15 -18.9,10.84 -30,10.84 -9.6,0 -15.6,-3.47 -15.6,-10.14 0,-7.14 8.5,-9.66 22.1,-14.95 l 18.2,-7.15 c 18.6,-7.36 29.2,-20.25 29.2,-40.97 0,-25.32 -21.2,-47.87 -58.5,-47.87 -18.8,0 -40.5,6.89 -56.6,21.4"
       style="fill:#100f0d;fill-opacity:1;fill-rule:nonzero;stroke:none"
       id="path718-7" /><path
       d="m -4793.603,7954.1307 h 39.6 v -149.62 h -39.6 v 149.62"
       style="fill:#100f0d;fill-opacity:1;fill-rule:nonzero;stroke:none"
       id="path720-0" /><path
       d="m -4704.303,7878.1707 c 0,50.19 34.5,78.73 72.3,78.73 19.8,0 35.9,-9.21 46.5,-19.8 l -20.7,-25.32 c -7.4,6.44 -14.8,11.06 -24.9,11.06 -17.5,0 -32.7,-16.13 -32.7,-43.27 0,-28.09 12.9,-43.75 32.3,-43.75 11.5,0 20.7,5.99 27.1,12.88 l 20.7,-24.84 c -12.6,-14.73 -29.9,-22.1 -49.2,-22.1 -38.2,0 -71.4,25.32 -71.4,76.41"
       style="fill:#100f0d;fill-opacity:1;fill-rule:nonzero;stroke:none"
       id="path722-9" /><path
       d="m -4477.403,7878.1707 c 0,50.19 34.5,78.73 72.3,78.73 19.8,0 35.9,-9.21 46.5,-19.8 l -20.7,-25.32 c -7.4,6.44 -14.8,11.06 -24.9,11.06 -17.5,0 -32.7,-16.13 -32.7,-43.27 0,-28.09 12.9,-43.75 32.2,-43.75 11.5,0 20.8,5.99 27.2,12.88 l 20.7,-24.84 c -12.6,-14.73 -29.9,-22.1 -49.2,-22.1 -38.3,0 -71.4,25.32 -71.4,76.41"
       style="fill:#100f0d;fill-opacity:1;fill-rule:nonzero;stroke:none"
       id="path724-3" /><path
       d="m -4230.203,7880.0207 c 0,27.17 -11.1,42.82 -29,42.82 -18,0 -29,-15.65 -29,-42.82 0,-27.17 11,-44.2 29,-44.2 17.9,0 29,17.03 29,44.2 z m -98.5,0 c 0,49.26 28.1,76.88 69.5,76.88 41.4,0 69.5,-27.84 69.5,-76.88 0,-49.27 -28.1,-78.26 -69.5,-78.26 -41.4,0 -69.5,28.99 -69.5,78.26"
       style="fill:#100f0d;fill-opacity:1;fill-rule:nonzero;stroke:none"
       id="path726-6" /><path
       d="m -4140.003,7954.1307 h 39.6 v -116.46 h 56.6 v -33.16 h -96.2 v 149.62"
       style="fill:#100f0d;fill-opacity:1;fill-rule:nonzero;stroke:none"
       id="path728-0" /><path
       d="m -3995.003,7954.1307 h 39.6 v -116.46 h 56.6 v -33.16 h -96.2 v 149.62"
       style="fill:#100f0d;fill-opacity:1;fill-rule:nonzero;stroke:none"
       id="path730-6" /><path
       d="m -3850.103,7954.1307 h 96.7 v -33.14 h -57.1 v -23.47 h 48.8 v -33.16 h -48.8 v -26.69 h 59.4 v -33.16 h -99 v 149.62"
       style="fill:#100f0d;fill-opacity:1;fill-rule:nonzero;stroke:none"
       id="path732-2" /><path
       d="m -3705.603,7878.1707 c 0,50.19 34.6,78.73 72.3,78.73 19.8,0 35.9,-9.21 46.5,-19.8 l -20.7,-25.32 c -7.3,6.44 -14.7,11.06 -24.9,11.06 -17.4,0 -32.6,-16.13 -32.6,-43.27 0,-28.09 12.9,-43.75 32.2,-43.75 11.5,0 20.7,5.99 27.2,12.88 l 20.7,-24.84 c -12.7,-14.73 -29.9,-22.1 -49.3,-22.1 -38.2,0 -71.4,25.32 -71.4,76.41"
       style="fill:#100f0d;fill-opacity:1;fill-rule:nonzero;stroke:none"
       id="path734-6" /><path
       d="m -3515.003,7920.9907 h -39.6 v 33.14 h 118.8 v -33.14 h -39.6 v -116.48 h -39.6 v 116.48"
       style="fill:#100f0d;fill-opacity:1;fill-rule:nonzero;stroke:none"
       id="path736-1" /><path
       d="m -3390.703,7954.1307 h 39.6 v -149.62 h -39.6 v 149.62"
       style="fill:#100f0d;fill-opacity:1;fill-rule:nonzero;stroke:none"
       id="path738-8" /><path
       d="m -3313.903,7954.1307 h 41.9 l 15.7,-65.37 c 4.1,-15.88 6.9,-31.29 11,-47.42 h 0.9 c 4.2,16.13 7.2,31.54 11.1,47.42 l 15.2,65.37 h 40.5 l -44.2,-149.62 h -47.9 l -44.2,149.62"
       style="fill:#100f0d;fill-opacity:1;fill-rule:nonzero;stroke:none"
       id="path740-7" /><path
       d="m -3142.703,7954.1307 h 96.7 v -33.14 h -57.1 v -23.47 h 48.8 v -33.16 h -48.8 v -26.69 h 59.4 v -33.16 h -99 v 149.62"
       style="fill:#100f0d;fill-opacity:1;fill-rule:nonzero;stroke:none"
       id="path742-9" /><path
       d="m -3671.903,8695.7207 h -113.5 v 1607.5003 h 113.5 V 8695.7207"
       style="fill:#100f0d;fill-opacity:1;fill-rule:nonzero;stroke:none"
       id="path744-2" /><path
       d="m -3450.603,8695.7207 h -85.4 v 1268.8 h 85.4 v -1268.8"
       style="fill:#100f0d;fill-opacity:1;fill-rule:nonzero;stroke:none"
       id="path746-0" /><path
       d="m -3912.103,8695.7207 h -85.5 v 1268.8 h 85.5 v -1268.8"
       style="fill:#100f0d;fill-opacity:1;fill-rule:nonzero;stroke:none"
       id="path748-2" /><path
       d="m -3238.503,8695.7207 h -56.9 v 1092 h 56.9 v -1092"
       style="fill:#100f0d;fill-opacity:1;fill-rule:nonzero;stroke:none"
       id="path750-3" /><path
       d="m -4154.903,8695.7207 h -56.8 v 1092 h 56.8 v -1092"
       style="fill:#100f0d;fill-opacity:1;fill-rule:nonzero;stroke:none"
       id="path752-7" /><path
       d="m -4384.703,8695.7207 h -47 v 932.1 h 47 v -932.1"
       style="fill:#100f0d;fill-opacity:1;fill-rule:nonzero;stroke:none"
       id="path754-5" /><path
       d="m -3016.303,8695.7207 h -47.1 v 932.1 h 47.1 v -932.1"
       style="fill:#100f0d;fill-opacity:1;fill-rule:nonzero;stroke:none"
       id="path756-9" /><path
       d="m -4630.003,8695.7207 h -23.6 v 831.1 h 23.6 v -831.1"
       style="fill:#100f0d;fill-opacity:1;fill-rule:nonzero;stroke:none"
       id="path758-2" /><path
       d="m -2800.503,9526.8207 h -23.4 v -192.3 h -1 v -1408.2 c -22.6,12.2 -58.3,11.55 -92.9,-4.37 -48.2,-22.15 -75.8,-65.05 -61.7,-95.81 14.1,-30.76 64.7,-37.74 112.9,-15.59 41.9,19.29 68.2,54.31 65,83.35 h 0.2 v 269.62 c 0.3,-0.1 0.6,-0.1 0.9,-0.1 v 1363.4"
       style="fill:#100f0d;fill-opacity:1;fill-rule:nonzero;stroke:none"
       id="path760-2" /></g></svg>
